<svg width="128" height="128" viewBox="0 0 128 128" fill="none" xmlns="http://www.w3.org/2000/svg">
<path d="M0 64C0 28.6538 28.6538 0 64 0V0C99.3462 0 128 28.6538 128 64V64C128 99.3462 99.3462 128 64 128V128C28.6538 128 0 99.3462 0 64V64Z" fill="#C69A74"/>
<path d="M128 64C128 47.0261 121.257 30.7475 109.255 18.7452C97.2525 6.74284 80.9739 1.28149e-06 64 0C47.0262 -1.28149e-06 30.7475 6.74284 18.7452 18.7452C6.74284 30.7475 2.56298e-06 47.0261 0 64L27 48L50 53.5L70 40.5L88.5 48L113.5 44.5L118.5 58L128 64Z" fill="#362618"/>
<g clip-path="url(#clip0_1_3)">
<mask id="path-3-inside-1_1_3" fill="white">
<path d="M70 78.5C70 81.4547 70.582 84.3806 71.7127 87.1104C72.8434 89.8402 74.5008 92.3206 76.5901 94.4099C78.6794 96.4992 81.1598 98.1566 83.8896 99.2873C86.6194 100.418 89.5453 101 92.5 101L92.5 78.5H70Z"/>
</mask>
<path d="M70 78.5C70 81.4547 70.582 84.3806 71.7127 87.1104C72.8434 89.8402 74.5008 92.3206 76.5901 94.4099C78.6794 96.4992 81.1598 98.1566 83.8896 99.2873C86.6194 100.418 89.5453 101 92.5 101L92.5 78.5H70Z" stroke="#AC835F" stroke-width="2" mask="url(#path-3-inside-1_1_3)"/>
<mask id="path-4-inside-2_1_3" fill="white">
<path d="M91.5 101C95.0507 101 98.5511 100.16 101.715 98.5476C104.879 96.9356 107.616 94.5978 109.703 91.7252C111.79 88.8526 113.168 85.5268 113.723 82.0198C114.278 78.5127 113.996 74.9241 112.899 71.5471L91.5 78.5L91.5 101Z"/>
</mask>
<path d="M91.5 101C95.0507 101 98.5511 100.16 101.715 98.5476C104.879 96.9356 107.616 94.5978 109.703 91.7252C111.79 88.8526 113.168 85.5268 113.723 82.0198C114.278 78.5127 113.996 74.9241 112.899 71.5471L91.5 78.5L91.5 101Z" stroke="#C69A74" stroke-width="2" mask="url(#path-4-inside-2_1_3)"/>
<path d="M114 75.5C114 78.4547 113.418 81.3806 112.287 84.1104C111.157 86.8402 109.499 89.3206 107.41 91.4099C105.321 93.4992 102.84 95.1566 100.11 96.2873C97.3806 97.418 94.4547 98 91.5 98C88.5453 98 85.6194 97.418 82.8896 96.2873C80.1598 95.1566 77.6794 93.4992 75.5901 91.4099C73.5008 89.3206 71.8434 86.8402 70.7127 84.1104C69.582 81.3806 69 78.4547 69 75.5L91.5 75.5H114Z" fill="white"/>
<g filter="url(#filter0_d_1_3)">
<path d="M69 76C69 73.0453 69.582 70.1194 70.7127 67.3896C71.8434 64.6598 73.5008 62.1794 75.5901 60.0901C77.6794 58.0008 80.1598 56.3434 82.8896 55.2127C85.6194 54.082 88.5453 53.5 91.5 53.5C94.4547 53.5 97.3806 54.082 100.11 55.2127C102.84 56.3434 105.321 58.0008 107.41 60.0901C109.499 62.1794 111.157 64.6598 112.287 67.3896C113.418 70.1194 114 73.0453 114 76L91.5 76H69Z" fill="#AC835F"/>
</g>
<rect x="84" y="76" width="15" height="6" fill="black"/>
<path d="M104 76C104 77.3132 103.677 78.6136 103.048 79.8268C102.42 81.0401 101.5 82.1425 100.339 83.0711C99.1781 83.9997 97.8001 84.7362 96.2835 85.2388C94.767 85.7413 93.1415 86 91.5 86C89.8585 86 88.233 85.7413 86.7165 85.2388C85.1999 84.7362 83.8219 83.9997 82.6612 83.0711C81.5004 82.1425 80.5797 81.0401 79.9515 79.8268C79.3233 78.6136 79 77.3132 79 76L85.25 76C85.25 76.6566 85.4117 77.3068 85.7258 77.9134C86.0398 78.52 86.5002 79.0712 87.0806 79.5355C87.6609 79.9998 88.3499 80.3681 89.1082 80.6194C89.8665 80.8707 90.6792 81 91.5 81C92.3208 81 93.1335 80.8707 93.8918 80.6194C94.6501 80.3681 95.3391 79.9998 95.9194 79.5355C96.4998 79.0712 96.9602 78.52 97.2742 77.9134C97.5883 77.3068 97.75 76.6566 97.75 76H104Z" fill="#66462A"/>
</g>
<g clip-path="url(#clip1_1_3)">
<mask id="path-9-inside-3_1_3" fill="white">
<path d="M57 78.5C57 81.4547 56.418 84.3806 55.2873 87.1104C54.1566 89.8402 52.4992 92.3206 50.4099 94.4099C48.3206 96.4992 45.8402 98.1566 43.1104 99.2873C40.3806 100.418 37.4547 101 34.5 101L34.5 78.5H57Z"/>
</mask>
<path d="M57 78.5C57 81.4547 56.418 84.3806 55.2873 87.1104C54.1566 89.8402 52.4992 92.3206 50.4099 94.4099C48.3206 96.4992 45.8402 98.1566 43.1104 99.2873C40.3806 100.418 37.4547 101 34.5 101L34.5 78.5H57Z" stroke="#AC835F" stroke-width="2" mask="url(#path-9-inside-3_1_3)"/>
<mask id="path-10-inside-4_1_3" fill="white">
<path d="M35.5 101C31.9493 101 28.4489 100.16 25.2852 98.5476C22.1215 96.9356 19.3842 94.5978 17.2971 91.7252C15.21 88.8526 13.8325 85.5268 13.277 82.0198C12.7216 78.5127 13.004 74.9241 14.1012 71.5471L35.5 78.5L35.5 101Z"/>
</mask>
<path d="M35.5 101C31.9493 101 28.4489 100.16 25.2852 98.5476C22.1215 96.9356 19.3842 94.5978 17.2971 91.7252C15.21 88.8526 13.8325 85.5268 13.277 82.0198C12.7216 78.5127 13.004 74.9241 14.1012 71.5471L35.5 78.5L35.5 101Z" stroke="#C69A74" stroke-width="2" mask="url(#path-10-inside-4_1_3)"/>
<path d="M58 75.5C58 78.4547 57.418 81.3806 56.2873 84.1104C55.1566 86.8402 53.4992 89.3206 51.4099 91.4099C49.3206 93.4992 46.8402 95.1566 44.1104 96.2873C41.3806 97.418 38.4547 98 35.5 98C32.5453 98 29.6194 97.418 26.8896 96.2873C24.1598 95.1566 21.6794 93.4992 19.5901 91.4099C17.5008 89.3206 15.8434 86.8402 14.7127 84.1104C13.582 81.3806 13 78.4547 13 75.5L35.5 75.5H58Z" fill="white"/>
<g filter="url(#filter1_d_1_3)">
<path d="M13 76C13 73.0453 13.582 70.1194 14.7127 67.3896C15.8434 64.6598 17.5008 62.1794 19.5901 60.0901C21.6794 58.0008 24.1598 56.3434 26.8896 55.2127C29.6194 54.082 32.5453 53.5 35.5 53.5C38.4547 53.5 41.3806 54.082 44.1104 55.2127C46.8402 56.3434 49.3206 58.0008 51.4099 60.0901C53.4992 62.1794 55.1566 64.6598 56.2873 67.3896C57.418 70.1194 58 73.0453 58 76L35.5 76H13Z" fill="#AC835F"/>
</g>
<rect x="37" y="76" width="15" height="6" fill="black"/>
<path d="M56 76C56 77.3132 55.6767 78.6136 55.0485 79.8268C54.4203 81.0401 53.4996 82.1425 52.3388 83.0711C51.1781 83.9997 49.8001 84.7362 48.2835 85.2388C46.767 85.7413 45.1415 86 43.5 86C41.8585 86 40.233 85.7413 38.7165 85.2388C37.1999 84.7362 35.8219 83.9997 34.6612 83.0711C33.5004 82.1425 32.5797 81.0401 31.9515 79.8268C31.3233 78.6136 31 77.3132 31 76L37.25 76C37.25 76.6566 37.4117 77.3068 37.7258 77.9134C38.0398 78.52 38.5002 79.0712 39.0806 79.5355C39.6609 79.9998 40.3499 80.3681 41.1082 80.6194C41.8665 80.8707 42.6792 81 43.5 81C44.3208 81 45.1335 80.8707 45.8918 80.6194C46.6501 80.3681 47.3391 79.9998 47.9194 79.5355C48.4998 79.0712 48.9602 78.52 49.2742 77.9134C49.5883 77.3068 49.75 76.6566 49.75 76H56Z" fill="#66462A"/>
</g>
<path d="M70.9554 117.629C70.1598 117.537 70.0988 116.638 70.8905 116.517C72.1928 116.317 73.6792 116.17 75.2648 116.085C76.8504 116 78.5041 115.979 80.1316 116.021C81.7591 116.064 83.3284 116.171 84.75 116.335C86.1716 116.499 87.4176 116.718 88.4169 116.978C89.4162 117.239 90.1492 117.536 90.5741 117.853C90.9989 118.17 91.1073 118.501 90.8931 118.826C90.2249 119.841 88.6984 119.678 87.4912 119.538L78.5 118.5L70.9554 117.629Z" fill="#9A4C4C"/>
<circle cx="19.5" cy="107.5" r="0.5" fill="#66462A"/>
<defs>
<filter id="filter0_d_1_3" x="65" y="53.5" width="53" height="30.5" filterUnits="userSpaceOnUse" color-interpolation-filters="sRGB">
<feFlood flood-opacity="0" result="BackgroundImageFix"/>
<feColorMatrix in="SourceAlpha" type="matrix" values="0 0 0 0 0 0 0 0 0 0 0 0 0 0 0 0 0 0 127 0" result="hardAlpha"/>
<feOffset dy="4"/>
<feGaussianBlur stdDeviation="2"/>
<feComposite in2="hardAlpha" operator="out"/>
<feColorMatrix type="matrix" values="0 0 0 0 0 0 0 0 0 0 0 0 0 0 0 0 0 0 0.25 0"/>
<feBlend mode="normal" in2="BackgroundImageFix" result="effect1_dropShadow_1_3"/>
<feBlend mode="normal" in="SourceGraphic" in2="effect1_dropShadow_1_3" result="shape"/>
</filter>
<filter id="filter1_d_1_3" x="9" y="53.5" width="53" height="30.5" filterUnits="userSpaceOnUse" color-interpolation-filters="sRGB">
<feFlood flood-opacity="0" result="BackgroundImageFix"/>
<feColorMatrix in="SourceAlpha" type="matrix" values="0 0 0 0 0 0 0 0 0 0 0 0 0 0 0 0 0 0 127 0" result="hardAlpha"/>
<feOffset dy="4"/>
<feGaussianBlur stdDeviation="2"/>
<feComposite in2="hardAlpha" operator="out"/>
<feColorMatrix type="matrix" values="0 0 0 0 0 0 0 0 0 0 0 0 0 0 0 0 0 0 0.25 0"/>
<feBlend mode="normal" in2="BackgroundImageFix" result="effect1_dropShadow_1_3"/>
<feBlend mode="normal" in="SourceGraphic" in2="effect1_dropShadow_1_3" result="shape"/>
</filter>
<clipPath id="clip0_1_3">
<rect width="45" height="50" fill="white" transform="translate(69 53)"/>
</clipPath>
<clipPath id="clip1_1_3">
<rect width="45" height="50" fill="white" transform="translate(13 53)"/>
</clipPath>
</defs>
</svg>
